<svg width="76" height="15" viewBox="0 0 76 15" fill="none" xmlns="http://www.w3.org/2000/svg">
<g clip-path="url(#clip0_7038_3808)">
<path d="M5.44647 7.40998C7.9798 7.40998 8.9298 5.82665 8.9298 4.30665C8.9298 2.78665 8.04313 1.26665 5.5098 1.26665H1.20313V7.40998H5.38313H5.44647ZM0.126465 0.31665H5.44647C8.80313 0.31665 10.0065 2.34332 10.0065 4.30665C10.0065 6.26998 8.80313 8.35998 5.44647 8.35998H1.20313V14.06H0.126465V0.31665Z" fill="#8A8A8D"/>
<path d="M19.0633 13.3C22.23 13.3 24.7 10.9567 24.7 7.09335C24.7 3.23002 22.1666 1.07669 19.0633 1.07669C15.96 1.07669 13.4266 3.42002 13.4266 7.09335C13.4266 10.7667 15.8966 13.3 19.0633 13.3ZM19.0633 0.0633545C22.8 0.0633545 25.84 2.78669 25.84 7.09335C25.84 11.4 22.8633 14.3134 19.0633 14.3134C15.2633 14.3134 12.2866 11.59 12.2866 7.09335C12.2866 2.59669 15.3266 0.0633545 19.0633 0.0633545Z" fill="#8A8A8D"/>
<path d="M34.3263 7.40998C36.8596 7.40998 37.8096 5.82665 37.8096 4.30665C37.8096 2.78665 36.8596 1.26665 34.3896 1.26665H29.8929V7.40998H34.3263ZM28.7529 0.31665H34.3263C37.6829 0.31665 38.8863 2.34332 38.8863 4.30665C38.8863 6.26998 37.9363 7.66332 35.7829 8.16998L38.8229 14.06H37.5563L34.6429 8.29665H29.8296V14.06H28.7529V0.31665Z" fill="#8A8A8D"/>
<path d="M45.853 1.32998H40.6597V0.31665H52.123V1.32998H46.9297V14.06H45.853V1.32998Z" fill="#8A8A8D"/>
<path d="M54.9099 9.43665H60.9899L58.0132 1.39332L55.0366 9.43665H54.9099ZM57.2533 0.31665H58.6466L63.9033 14.06H62.6999L61.3066 10.3233H54.5932L53.1999 14.06H51.9966L57.2533 0.31665Z" fill="#8A8A8D"/>
<path d="M66.373 0.31665H67.4497V13.0467H75.5564V14.06H66.373V0.31665Z" fill="#8A8A8D"/>
<path d="M19.0632 11.59C21.2799 11.59 23.0532 9.94331 23.0532 7.15664C23.0532 4.36998 21.2799 2.84998 19.0632 2.84998C16.8466 2.84998 15.0732 4.55998 15.0732 7.15664C15.0732 9.94331 16.8466 11.59 19.0632 11.59Z" fill="#FF5000"/>
</g>
<defs>
<clipPath id="clip0_7038_3808">
<rect width="76" height="14.5667" fill="white"/>
</clipPath>
</defs>
</svg>
