<svg width="22" height="22" viewBox="0 0 22 22" fill="none" xmlns="http://www.w3.org/2000/svg">
<path d="M16.5312 0.5C17.7031 0.5 18.7812 1.20312 19.25 2.32812L21.2188 6.6875C21.4062 7.0625 21.5 7.48438 21.5 7.90625V18.5C21.5 20.1875 20.1406 21.5 18.5 21.5H3.5C1.8125 21.5 0.5 20.1875 0.5 18.5V7.90625C0.5 7.48438 0.546875 7.0625 0.734375 6.6875L2.70312 2.32812C3.17188 1.20312 4.25 0.5 5.42188 0.5H16.5312ZM19.4844 6.5L17.8906 2.89062C17.6562 2.375 17.1406 2 16.5312 2H13.1562L14 6.5H19.4844ZM12.4531 6.5L11.6094 2H10.3438L9.5 6.5H12.4531ZM12.5 8H9.5V11H12.5V8ZM8 8H2V18.5C2 19.3438 2.65625 20 3.5 20H18.5C19.2969 20 20 19.3438 20 18.5V8H14V11C14 11.8438 13.2969 12.5 12.5 12.5H9.5C8.65625 12.5 8 11.8438 8 11V8ZM8 6.5L8.84375 2H5.42188C4.8125 2 4.29688 2.375 4.0625 2.89062L2.46875 6.5H8Z" fill="#FF5000"/>
</svg>
