<svg width="22" height="7" viewBox="0 0 22 7" fill="none" xmlns="http://www.w3.org/2000/svg">
<path d="M21.9375 3.625C21.9375 5.38281 20.5215 6.75 18.8125 6.75C17.0547 6.75 15.6875 5.38281 15.6875 3.625C15.6875 1.91602 17.0547 0.5 18.8125 0.5C20.5215 0.5 21.9375 1.91602 21.9375 3.625ZM18.8125 2.0625C17.9336 2.0625 17.25 2.79492 17.25 3.625C17.25 4.50391 17.9336 5.1875 18.8125 5.1875C19.6426 5.1875 20.375 4.50391 20.375 3.625C20.375 2.79492 19.6426 2.0625 18.8125 2.0625ZM14.125 3.625C14.125 5.38281 12.709 6.75 11 6.75C9.24219 6.75 7.875 5.38281 7.875 3.625C7.875 1.91602 9.24219 0.5 11 0.5C12.709 0.5 14.125 1.91602 14.125 3.625ZM11 2.0625C10.1211 2.0625 9.4375 2.79492 9.4375 3.625C9.4375 4.50391 10.1211 5.1875 11 5.1875C11.8301 5.1875 12.5625 4.50391 12.5625 3.625C12.5625 2.79492 11.8301 2.0625 11 2.0625ZM0.0625 3.625C0.0625 1.91602 1.42969 0.5 3.1875 0.5C4.89648 0.5 6.3125 1.91602 6.3125 3.625C6.3125 5.38281 4.89648 6.75 3.1875 6.75C1.42969 6.75 0.0625 5.38281 0.0625 3.625ZM3.1875 5.1875C4.01758 5.1875 4.75 4.50391 4.75 3.625C4.75 2.79492 4.01758 2.0625 3.1875 2.0625C2.30859 2.0625 1.625 2.79492 1.625 3.625C1.625 4.50391 2.30859 5.1875 3.1875 5.1875Z" fill="#8E9197"/>
</svg>
