<svg width="30" height="26" viewBox="0 0 30 26" fill="none" xmlns="http://www.w3.org/2000/svg">
<path d="M4.84375 0.125C5.18555 0.125 5.47852 0.417969 5.57617 0.759766L5.82031 1.6875H27.3535C28.3789 1.6875 29.1602 2.71289 28.8672 3.68945L26.2305 13.0645C26.0352 13.748 25.4492 14.1875 24.7168 14.1875H8.65234L9.33594 17.3125H25.1562C25.5469 17.3125 25.9375 17.7031 25.9375 18.0938C25.9375 18.5332 25.5469 18.875 25.1562 18.875H8.75C8.35938 18.875 8.06641 18.6309 7.96875 18.2891L4.20898 1.6875H1.71875C1.2793 1.6875 0.9375 1.3457 0.9375 0.90625C0.9375 0.515625 1.2793 0.125 1.71875 0.125H4.84375ZM6.16211 3.25L8.26172 12.625H24.7168L27.3535 3.25H6.16211ZM7.1875 22.3906C7.1875 20.9258 8.4082 19.6562 9.92188 19.6562C11.3867 19.6562 12.6562 20.9258 12.6562 22.3906C12.6562 23.9043 11.3867 25.125 9.92188 25.125C8.4082 25.125 7.1875 23.9043 7.1875 22.3906ZM9.92188 23.5625C10.5566 23.5625 11.0938 23.0742 11.0938 22.3906C11.0938 21.7559 10.5566 21.2188 9.92188 21.2188C9.23828 21.2188 8.75 21.7559 8.75 22.3906C8.75 23.0742 9.23828 23.5625 9.92188 23.5625ZM25.9375 22.3906C25.9375 23.9043 24.668 25.125 23.2031 25.125C21.6895 25.125 20.4688 23.9043 20.4688 22.3906C20.4688 20.9258 21.6895 19.6562 23.2031 19.6562C24.668 19.6562 25.9375 20.9258 25.9375 22.3906ZM23.2031 21.2188C22.5195 21.2188 22.0312 21.7559 22.0312 22.3906C22.0312 23.0742 22.5195 23.5625 23.2031 23.5625C23.8379 23.5625 24.375 23.0742 24.375 22.3906C24.375 21.7559 23.8379 21.2188 23.2031 21.2188Z" fill="#8E9197"/>
</svg>
