<svg width="26" height="26" viewBox="0 0 26 26" fill="none" xmlns="http://www.w3.org/2000/svg">
<path d="M13.7812 7.10742C14.416 7.15625 15.0508 7.35156 15.6855 7.54688C15.7832 7.54688 15.832 7.5957 15.9297 7.5957C16.3203 7.69336 16.5645 8.13281 16.4668 8.57227C16.3691 8.96289 15.9297 9.20703 15.4902 9.10938C15.3926 9.06055 15.2461 9.06055 15.1484 9.01172C14.7578 8.91406 14.416 8.76758 14.0254 8.71875C13.0977 8.57227 12.2676 8.71875 11.6328 8.96289C10.998 9.25586 10.7051 9.59766 10.6562 9.93945C10.5586 10.4277 10.7539 10.7207 11.1445 11.0137C11.6816 11.3066 12.4629 11.5508 13.3906 11.7949C14.2695 12.0391 15.2949 12.332 16.0762 12.8691C17.0039 13.5039 17.4434 14.5293 17.1992 15.6523C17.0039 16.6777 16.2715 17.4102 15.3926 17.752C14.9043 17.9473 14.3184 18.0938 13.7812 18.0938V19.2656C13.7812 19.7051 13.3906 20.0469 13 20.0469C12.5605 20.0469 12.2188 19.7051 12.2188 19.2656V18.0449C11.7793 17.9473 11.1445 17.752 10.6074 17.6055C10.2656 17.5078 9.92383 17.4102 9.58203 17.3125C9.19141 17.166 8.99609 16.7266 9.09375 16.2871C9.24023 15.8965 9.67969 15.6523 10.1191 15.7988C10.4121 15.8965 10.7539 16.043 11.0469 16.1406C11.6328 16.2871 12.1699 16.4336 12.4629 16.4824C13.3906 16.6289 14.2207 16.5312 14.8066 16.3359C15.3438 16.0918 15.5879 15.75 15.6855 15.3594C15.7832 14.8223 15.5879 14.4316 15.1973 14.1387C14.6113 13.748 13.8789 13.5527 13.1953 13.3574C13.0488 13.3574 12.9512 13.3086 12.8535 13.2598C12.0234 13.0645 11.0469 12.7715 10.3145 12.2832C9.92383 12.0391 9.5332 11.6973 9.33789 11.2578C9.09375 10.7695 8.99609 10.2324 9.14258 9.64648C9.28906 8.62109 10.1191 7.9375 10.998 7.54688C11.3887 7.40039 11.7793 7.25391 12.1699 7.20508V5.98438C12.1699 5.59375 12.5605 5.20312 12.9512 5.20312C13.3906 5.20312 13.7812 5.59375 13.7812 5.98438V7.10742ZM25.5 12.625C25.5 19.5586 19.8848 25.125 13 25.125C6.06641 25.125 0.5 19.5586 0.5 12.625C0.5 5.74023 6.06641 0.125 13 0.125C19.8848 0.125 25.5 5.74023 25.5 12.625ZM13 1.6875C6.94531 1.6875 2.0625 6.61914 2.0625 12.625C2.0625 18.6797 6.94531 23.5625 13 23.5625C19.0059 23.5625 23.9375 18.6797 23.9375 12.625C23.9375 6.61914 19.0059 1.6875 13 1.6875Z" fill="#8E9197"/>
</svg>
