<svg width="28" height="25" viewBox="0 0 28 25" fill="none" xmlns="http://www.w3.org/2000/svg">
<path d="M3.5 22.5H12.5938L12.5469 22.7344C12.4531 23.1562 12.4531 23.625 12.5938 24H3.5C1.8125 24 0.5 22.6875 0.5 21V3C0.5 1.35938 1.8125 0 3.5 0H10.8125C11.375 0 11.9844 0.28125 12.4062 0.703125L17.7969 6.09375C18.2188 6.51562 18.5 7.125 18.5 7.6875V14.0625L17 15.5625V9H11.75C10.4844 9 9.5 8.01562 9.5 6.75V1.5H3.5C2.65625 1.5 2 2.20312 2 3V21C2 21.8438 2.65625 22.5 3.5 22.5ZM16.7656 7.17188L11.3281 1.73438C11.2344 1.64062 11.0938 1.59375 11 1.54688V6.75C11 7.17188 11.3281 7.5 11.75 7.5H16.9531C16.9062 7.40625 16.8594 7.26562 16.7656 7.17188ZM22.6719 11.3438C23.5625 10.4531 24.9688 10.4531 25.8594 11.3438L26.6562 12.1406C27.5469 13.0312 27.5469 14.4375 26.6562 15.3281L19.4375 22.5469C19.1562 22.8281 18.8281 23.0156 18.4062 23.1094L14.8906 24C14.6562 24.0469 14.375 24 14.1875 23.8125C14 23.625 13.9531 23.3438 14 23.0625L14.8906 19.5938C14.9844 19.1719 15.1719 18.7969 15.4531 18.5156L22.6719 11.3438ZM24.7812 12.375C24.5 12.0938 24.0312 12.0938 23.7031 12.375L22.5781 13.5469L24.4531 15.4219L25.5781 14.25C25.9062 13.9688 25.9062 13.5 25.5781 13.2188L24.7812 12.375ZM16.3438 19.9219L15.7344 22.2188L18.0312 21.6562C18.1719 21.6094 18.3125 21.5625 18.4062 21.4688L23.375 16.5L21.5 14.625L16.5312 19.5938C16.4375 19.6875 16.3438 19.8281 16.3438 19.9219Z" fill="#8E9197"/>
</svg>
