<svg width="21" height="20" viewBox="0 0 21 20" fill="none" xmlns="http://www.w3.org/2000/svg">
<path d="M8.99609 1.9707L9.51562 0.560547C9.55273 0.449219 9.66406 0.375 9.8125 0.375C9.92383 0.375 10.0352 0.449219 10.0723 0.560547L10.5918 1.9707L12.002 2.49023C12.1133 2.52734 12.1875 2.63867 12.1875 2.75C12.1875 2.89844 12.1133 3.00977 12.002 3.04688L10.5918 3.56641L10.0723 4.93945C10.0352 5.05078 9.92383 5.125 9.8125 5.125C9.66406 5.125 9.55273 5.05078 9.51562 4.93945L8.99609 3.56641L7.62305 3.04688C7.51172 3.00977 7.4375 2.89844 7.4375 2.75C7.4375 2.63867 7.51172 2.52734 7.62305 2.49023L8.99609 1.9707ZM17.4199 2.15625L13.3379 6.23828L14.6367 7.53711L18.7188 3.45508L17.4199 2.15625ZM3.28125 16.332L4.54297 17.5938L13.375 8.79883L12.0762 7.5L3.28125 16.332ZM16.1582 0.931641C16.8633 0.226562 17.9766 0.226562 18.6816 0.931641L19.9434 2.19336C20.6484 2.89844 20.6484 4.01172 19.9434 4.7168L5.80469 18.8555C5.09961 19.5605 3.98633 19.5605 3.28125 18.8555L2.01953 17.5938C1.31445 16.8887 1.31445 15.7754 2.01953 15.0703L16.1582 0.931641ZM0.572266 4.75391L2.6875 3.9375L3.4668 1.85938C3.50391 1.67383 3.68945 1.5625 3.875 1.5625C4.02344 1.5625 4.20898 1.67383 4.24609 1.85938L5.0625 3.9375L7.14062 4.75391C7.32617 4.79102 7.4375 4.97656 7.4375 5.125C7.4375 5.31055 7.32617 5.49609 7.14062 5.5332L5.0625 6.3125L4.24609 8.42773C4.20898 8.57617 4.02344 8.6875 3.875 8.6875C3.68945 8.6875 3.50391 8.57617 3.4668 8.42773L2.6875 6.3125L0.572266 5.5332C0.423828 5.49609 0.3125 5.31055 0.3125 5.125C0.3125 4.97656 0.423828 4.79102 0.572266 4.75391ZM13.6348 14.2539L15.75 13.4375L16.5293 11.3594C16.5664 11.1738 16.752 11.0625 16.9375 11.0625C17.0859 11.0625 17.2715 11.1738 17.3086 11.3594L18.125 13.4375L20.2031 14.2539C20.3887 14.291 20.5 14.4766 20.5 14.625C20.5 14.8105 20.3887 14.9961 20.2031 15.0332L18.125 15.8125L17.3086 17.9277C17.2715 18.0762 17.0859 18.1875 16.9375 18.1875C16.752 18.1875 16.5664 18.0762 16.5293 17.9277L15.75 15.8125L13.6348 15.0332C13.4863 14.9961 13.375 14.8105 13.375 14.625C13.375 14.4766 13.4863 14.291 13.6348 14.2539Z" fill="#27272A"/>
</svg>
