<svg width="13" height="15" viewBox="0 0 13 15" fill="none" xmlns="http://www.w3.org/2000/svg">
<path d="M9.48828 6.00195L5.11328 10.377C4.94922 10.5547 4.66211 10.5547 4.49805 10.377C4.32031 10.2129 4.32031 9.92578 4.49805 9.76172L8.87305 5.38672C9.03711 5.20898 9.32422 5.20898 9.48828 5.38672C9.66602 5.55078 9.66602 5.83789 9.48828 6.00195ZM6.125 6.125C6.125 6.43945 5.94727 6.72656 5.6875 6.89062C5.41406 7.04102 5.07227 7.04102 4.8125 6.89062C4.53906 6.72656 4.375 6.43945 4.375 6.125C4.375 5.82422 4.53906 5.53711 4.8125 5.37305C5.07227 5.22266 5.41406 5.22266 5.6875 5.37305C5.94727 5.53711 6.125 5.82422 6.125 6.125ZM9.625 9.625C9.625 9.93945 9.44727 10.2266 9.1875 10.3906C8.91406 10.541 8.57227 10.541 8.3125 10.3906C8.03906 10.2266 7.875 9.93945 7.875 9.625C7.875 9.32422 8.03906 9.03711 8.3125 8.87305C8.57227 8.72266 8.91406 8.72266 9.1875 8.87305C9.44727 9.03711 9.625 9.32422 9.625 9.625Z" fill="#FF5000"/>
<circle cx="7" cy="8" r="5.5" stroke="#FF5000"/>
</svg>
